<svg xmlns="http://www.w3.org/2000/svg" version="1.1" xmlns:xlink="http://www.w3.org/1999/xlink" xmlns:svgjs="http://svgjs.com/svgjs" width="1440" height="560" preserveAspectRatio="none" viewBox="0 0 1440 560"><g mask="url(&quot;#SvgjsMask1973&quot;)" fill="none"><rect width="1440" height="560" x="0" y="0" fill="url(#SvgjsLinearGradient1974)"></rect><g mask="url(&quot;#SvgjsMask1975&quot;)"><path d="M123.5 292.5L136.5 279.5L149.5 266.5L162.5 266.5M227.5 292.5L240.5 279.5L253.5 279.5L266.5 292.5L279.5 292.5M136.5 292.5L149.5 305.5L162.5 305.5L175.5 305.5M201.5 292.5L214.5 279.5M110.5 292.5L123.5 305.5L136.5 305.5M-6.5 292.5L6.5 292.5L19.5 292.5L32.5 292.5L45.5 292.5L58.5 292.5L71.5 305.5L84.5 305.5L97.5 305.5L110.5 292.5L123.5 292.5L136.5 292.5L149.5 292.5L162.5 292.5L175.5 292.5L188.5 292.5L201.5 292.5L214.5 292.5L227.5 292.5L240.5 292.5" stroke="rgba(15, 217, 47, 1)" stroke-width="2.17"></path><path d="M237.25 292.5 a3.25 3.25 0 1 0 6.5 0 a3.25 3.25 0 1 0 -6.5 0zM159.25 266.5 a3.25 3.25 0 1 0 6.5 0 a3.25 3.25 0 1 0 -6.5 0zM276.25 292.5 a3.25 3.25 0 1 0 6.5 0 a3.25 3.25 0 1 0 -6.5 0zM172.25 305.5 a3.25 3.25 0 1 0 6.5 0 a3.25 3.25 0 1 0 -6.5 0zM211.25 279.5 a3.25 3.25 0 1 0 6.5 0 a3.25 3.25 0 1 0 -6.5 0zM133.25 305.5 a3.25 3.25 0 1 0 6.5 0 a3.25 3.25 0 1 0 -6.5 0z" fill="rgba(15, 217, 47, 1)"></path><path d="M227.5 214.5L240.5 227.5L253.5 227.5M58.5 240.5L71.5 240.5L84.5 240.5L97.5 240.5L110.5 240.5M123.5 227.5L136.5 240.5L149.5 240.5L162.5 240.5L175.5 227.5L188.5 227.5M240.5 214.5L253.5 214.5L266.5 214.5L279.5 214.5L292.5 214.5M136.5 227.5L149.5 227.5M-6.5 266.5L6.5 266.5L19.5 266.5L32.5 253.5L45.5 240.5L58.5 240.5L71.5 227.5L84.5 227.5L97.5 227.5L110.5 227.5L123.5 227.5L136.5 227.5L149.5 214.5L162.5 214.5L175.5 214.5L188.5 214.5L201.5 214.5L214.5 214.5L227.5 214.5L240.5 214.5L253.5 201.5L266.5 201.5L279.5 201.5" stroke="#dd1133" stroke-width="2.17"></path><path d="M276.25 201.5 a3.25 3.25 0 1 0 6.5 0 a3.25 3.25 0 1 0 -6.5 0zM250.25 227.5 a3.25 3.25 0 1 0 6.5 0 a3.25 3.25 0 1 0 -6.5 0zM107.25 240.5 a3.25 3.25 0 1 0 6.5 0 a3.25 3.25 0 1 0 -6.5 0zM185.25 227.5 a3.25 3.25 0 1 0 6.5 0 a3.25 3.25 0 1 0 -6.5 0zM289.25 214.5 a3.25 3.25 0 1 0 6.5 0 a3.25 3.25 0 1 0 -6.5 0zM146.25 227.5 a3.25 3.25 0 1 0 6.5 0 a3.25 3.25 0 1 0 -6.5 0z" fill="#dd1133"></path><path d="M45.5 305.5L58.5 318.5M240.5 318.5L253.5 331.5L266.5 331.5L279.5 331.5L292.5 331.5L305.5 331.5M253.5 318.5L266.5 305.5L279.5 305.5M32.5 305.5L45.5 318.5M214.5 318.5L227.5 305.5L240.5 305.5L253.5 305.5M305.5 318.5L318.5 305.5L331.5 292.5M-6.5 305.5L6.5 305.5L19.5 305.5L32.5 305.5L45.5 305.5L58.5 305.5L71.5 318.5L84.5 318.5L97.5 318.5L110.5 318.5L123.5 318.5L136.5 318.5L149.5 318.5L162.5 318.5L175.5 318.5L188.5 318.5L201.5 318.5L214.5 318.5L227.5 318.5L240.5 318.5L253.5 318.5L266.5 318.5L279.5 318.5L292.5 318.5L305.5 318.5L318.5 318.5" stroke="rgba(78, 15, 217, 1)" stroke-width="2.17"></path><path d="M315.25 318.5 a3.25 3.25 0 1 0 6.5 0 a3.25 3.25 0 1 0 -6.5 0zM55.25 318.5 a3.25 3.25 0 1 0 6.5 0 a3.25 3.25 0 1 0 -6.5 0zM302.25 331.5 a3.25 3.25 0 1 0 6.5 0 a3.25 3.25 0 1 0 -6.5 0zM276.25 305.5 a3.25 3.25 0 1 0 6.5 0 a3.25 3.25 0 1 0 -6.5 0zM42.25 318.5 a3.25 3.25 0 1 0 6.5 0 a3.25 3.25 0 1 0 -6.5 0zM250.25 305.5 a3.25 3.25 0 1 0 6.5 0 a3.25 3.25 0 1 0 -6.5 0zM328.25 292.5 a3.25 3.25 0 1 0 6.5 0 a3.25 3.25 0 1 0 -6.5 0z" fill="rgba(78, 15, 217, 1)"></path><path d="M513.5 201.5L526.5 214.5M643.5 188.5L656.5 175.5L669.5 175.5L682.5 175.5L695.5 175.5L708.5 175.5L721.5 162.5L734.5 162.5L747.5 162.5L760.5 162.5L773.5 149.5L786.5 136.5L799.5 136.5L812.5 123.5L825.5 123.5L838.5 123.5L851.5 123.5L864.5 123.5L877.5 123.5L890.5 123.5L903.5 123.5L916.5 123.5L929.5 123.5L942.5 123.5L955.5 123.5L968.5 123.5L981.5 123.5M227.5 201.5L240.5 188.5M318.5 214.5L331.5 201.5L344.5 201.5L357.5 188.5L370.5 188.5L383.5 188.5L396.5 188.5L409.5 188.5M500.5 201.5L513.5 214.5L526.5 227.5L539.5 227.5L552.5 227.5L565.5 227.5L578.5 240.5M357.5 201.5L370.5 214.5L383.5 214.5M890.5 188.5L903.5 175.5M604.5 188.5L617.5 201.5L630.5 201.5L643.5 201.5L656.5 201.5L669.5 201.5L682.5 201.5L695.5 201.5L708.5 201.5L721.5 214.5L734.5 214.5L747.5 214.5L760.5 214.5L773.5 214.5L786.5 214.5L799.5 214.5L812.5 214.5L825.5 214.5L838.5 214.5L851.5 214.5L864.5 214.5L877.5 214.5L890.5 214.5L903.5 214.5L916.5 214.5M864.5 188.5L877.5 201.5L890.5 201.5L903.5 201.5L916.5 201.5L929.5 201.5M734.5 201.5L747.5 188.5L760.5 188.5L773.5 188.5L786.5 188.5L799.5 188.5L812.5 188.5L825.5 188.5L838.5 188.5L851.5 188.5L864.5 175.5L877.5 175.5L890.5 175.5L903.5 162.5L916.5 162.5L929.5 162.5L942.5 162.5L955.5 162.5M630.5 188.5L643.5 175.5L656.5 162.5L669.5 162.5L682.5 162.5L695.5 162.5L708.5 162.5L721.5 149.5L734.5 149.5L747.5 149.5L760.5 149.5L773.5 136.5L786.5 123.5L799.5 123.5L812.5 110.5L825.5 110.5L838.5 110.5L851.5 97.5L864.5 97.5L877.5 110.5L890.5 110.5M981.5 201.5L994.5 188.5L1007.5 188.5L1020.5 188.5M552.5 188.5L565.5 201.5M1059.5 201.5L1072.5 214.5L1085.5 214.5L1098.5 214.5L1111.5 214.5L1124.5 214.5L1137.5 214.5L1150.5 214.5L1163.5 214.5L1176.5 214.5L1189.5 214.5M565.5 188.5L578.5 175.5L591.5 175.5L604.5 175.5L617.5 175.5L630.5 175.5L643.5 162.5L656.5 149.5L669.5 149.5L682.5 149.5L695.5 149.5L708.5 149.5M721.5 201.5L734.5 188.5L747.5 175.5M955.5 201.5L968.5 214.5L981.5 214.5L994.5 214.5L1007.5 214.5L1020.5 227.5L1033.5 227.5L1046.5 227.5L1059.5 227.5L1072.5 227.5L1085.5 240.5L1098.5 253.5L1111.5 253.5L1124.5 253.5L1137.5 253.5L1150.5 253.5L1163.5 253.5L1176.5 253.5L1189.5 253.5M968.5 201.5L981.5 188.5L994.5 175.5L1007.5 175.5L1020.5 175.5L1033.5 175.5L1046.5 162.5L1059.5 162.5L1072.5 175.5L1085.5 175.5L1098.5 175.5L1111.5 175.5L1124.5 175.5L1137.5 175.5L1150.5 175.5L1163.5 175.5L1176.5 175.5L1189.5 175.5M539.5 188.5L552.5 201.5L565.5 214.5M929.5 188.5L942.5 175.5L955.5 175.5L968.5 175.5L981.5 175.5L994.5 162.5L1007.5 149.5L1020.5 136.5L1033.5 136.5L1046.5 123.5L1059.5 123.5L1072.5 123.5M396.5 201.5L409.5 214.5L422.5 214.5L435.5 214.5M-6.5 253.5L6.5 253.5L19.5 253.5L32.5 240.5L45.5 227.5L58.5 227.5L71.5 214.5L84.5 214.5L97.5 214.5L110.5 214.5L123.5 214.5L136.5 214.5L149.5 201.5L162.5 201.5L175.5 201.5L188.5 201.5L201.5 201.5L214.5 201.5L227.5 201.5L240.5 201.5L253.5 188.5L266.5 188.5L279.5 188.5L292.5 188.5L305.5 201.5L318.5 214.5L331.5 214.5L344.5 214.5L357.5 201.5L370.5 201.5L383.5 201.5L396.5 201.5L409.5 201.5L422.5 201.5L435.5 201.5L448.5 201.5L461.5 201.5L474.5 201.5L487.5 201.5L500.5 201.5L513.5 201.5L526.5 201.5L539.5 188.5L552.5 188.5L565.5 188.5L578.5 188.5L591.5 188.5L604.5 188.5L617.5 188.5L630.5 188.5L643.5 188.5L656.5 188.5L669.5 188.5L682.5 188.5L695.5 188.5L708.5 188.5L721.5 201.5L734.5 201.5L747.5 201.5L760.5 201.5L773.5 201.5L786.5 201.5L799.5 201.5L812.5 201.5L825.5 201.5L838.5 201.5L851.5 201.5L864.5 188.5L877.5 188.5L890.5 188.5L903.5 188.5L916.5 188.5L929.5 188.5L942.5 188.5L955.5 201.5L968.5 201.5L981.5 201.5L994.5 201.5L1007.5 201.5L1020.5 201.5L1033.5 201.5L1046.5 201.5L1059.5 201.5L1072.5 201.5" stroke="rgba(78, 15, 217, 1)" stroke-width="2.17"></path><path d="M1069.25 201.5 a3.25 3.25 0 1 0 6.5 0 a3.25 3.25 0 1 0 -6.5 0zM523.25 214.5 a3.25 3.25 0 1 0 6.5 0 a3.25 3.25 0 1 0 -6.5 0zM978.25 123.5 a3.25 3.25 0 1 0 6.5 0 a3.25 3.25 0 1 0 -6.5 0zM237.25 188.5 a3.25 3.25 0 1 0 6.5 0 a3.25 3.25 0 1 0 -6.5 0zM406.25 188.5 a3.25 3.25 0 1 0 6.5 0 a3.25 3.25 0 1 0 -6.5 0zM575.25 240.5 a3.25 3.25 0 1 0 6.5 0 a3.25 3.25 0 1 0 -6.5 0zM380.25 214.5 a3.25 3.25 0 1 0 6.5 0 a3.25 3.25 0 1 0 -6.5 0zM900.25 175.5 a3.25 3.25 0 1 0 6.5 0 a3.25 3.25 0 1 0 -6.5 0zM913.25 214.5 a3.25 3.25 0 1 0 6.5 0 a3.25 3.25 0 1 0 -6.5 0zM926.25 201.5 a3.25 3.25 0 1 0 6.5 0 a3.25 3.25 0 1 0 -6.5 0zM952.25 162.5 a3.25 3.25 0 1 0 6.5 0 a3.25 3.25 0 1 0 -6.5 0zM887.25 110.5 a3.25 3.25 0 1 0 6.5 0 a3.25 3.25 0 1 0 -6.5 0zM1017.25 188.5 a3.25 3.25 0 1 0 6.5 0 a3.25 3.25 0 1 0 -6.5 0zM562.25 201.5 a3.25 3.25 0 1 0 6.5 0 a3.25 3.25 0 1 0 -6.5 0zM1186.25 214.5 a3.25 3.25 0 1 0 6.5 0 a3.25 3.25 0 1 0 -6.5 0zM705.25 149.5 a3.25 3.25 0 1 0 6.5 0 a3.25 3.25 0 1 0 -6.5 0zM744.25 175.5 a3.25 3.25 0 1 0 6.5 0 a3.25 3.25 0 1 0 -6.5 0zM1186.25 253.5 a3.25 3.25 0 1 0 6.5 0 a3.25 3.25 0 1 0 -6.5 0zM1186.25 175.5 a3.25 3.25 0 1 0 6.5 0 a3.25 3.25 0 1 0 -6.5 0zM562.25 214.5 a3.25 3.25 0 1 0 6.5 0 a3.25 3.25 0 1 0 -6.5 0zM1069.25 123.5 a3.25 3.25 0 1 0 6.5 0 a3.25 3.25 0 1 0 -6.5 0zM432.25 214.5 a3.25 3.25 0 1 0 6.5 0 a3.25 3.25 0 1 0 -6.5 0z" fill="rgba(78, 15, 217, 1)"></path><path d="M188.5 331.5L201.5 344.5L214.5 344.5L227.5 357.5L240.5 357.5L253.5 357.5L266.5 357.5L279.5 357.5M448.5 344.5L461.5 331.5L474.5 318.5L487.5 318.5L500.5 318.5M344.5 344.5L357.5 331.5L370.5 331.5L383.5 331.5L396.5 331.5M162.5 331.5L175.5 344.5L188.5 344.5M474.5 331.5L487.5 344.5M526.5 331.5L539.5 344.5L552.5 344.5L565.5 357.5L578.5 357.5L591.5 357.5L604.5 357.5L617.5 357.5L630.5 357.5L643.5 357.5L656.5 357.5L669.5 357.5L682.5 357.5L695.5 357.5L708.5 357.5L721.5 357.5L734.5 357.5L747.5 357.5L760.5 344.5L773.5 344.5M539.5 331.5L552.5 318.5L565.5 305.5L578.5 305.5L591.5 305.5L604.5 318.5M409.5 344.5L422.5 331.5M461.5 344.5L474.5 344.5L487.5 357.5L500.5 357.5M318.5 344.5L331.5 331.5L344.5 331.5L357.5 318.5L370.5 318.5L383.5 318.5L396.5 318.5L409.5 318.5M19.5 318.5L32.5 318.5M-6.5 318.5L6.5 318.5L19.5 318.5L32.5 331.5L45.5 331.5L58.5 331.5L71.5 331.5L84.5 331.5L97.5 331.5L110.5 331.5L123.5 331.5L136.5 331.5L149.5 331.5L162.5 331.5L175.5 331.5L188.5 331.5L201.5 331.5L214.5 331.5L227.5 344.5L240.5 344.5L253.5 344.5L266.5 344.5L279.5 344.5L292.5 344.5L305.5 344.5L318.5 344.5L331.5 344.5L344.5 344.5L357.5 344.5L370.5 344.5L383.5 344.5L396.5 344.5L409.5 344.5L422.5 344.5L435.5 344.5L448.5 344.5L461.5 344.5L474.5 331.5L487.5 331.5L500.5 331.5L513.5 331.5L526.5 331.5L539.5 331.5L552.5 331.5L565.5 344.5" stroke="rgba(78, 15, 217, 1)" stroke-width="2.17"></path><path d="M562.25 344.5 a3.25 3.25 0 1 0 6.5 0 a3.25 3.25 0 1 0 -6.5 0zM276.25 357.5 a3.25 3.25 0 1 0 6.5 0 a3.25 3.25 0 1 0 -6.5 0zM497.25 318.5 a3.25 3.25 0 1 0 6.5 0 a3.25 3.25 0 1 0 -6.5 0zM393.25 331.5 a3.25 3.25 0 1 0 6.5 0 a3.25 3.25 0 1 0 -6.5 0zM185.25 344.5 a3.25 3.25 0 1 0 6.5 0 a3.25 3.25 0 1 0 -6.5 0zM484.25 344.5 a3.25 3.25 0 1 0 6.5 0 a3.25 3.25 0 1 0 -6.5 0zM770.25 344.5 a3.25 3.25 0 1 0 6.5 0 a3.25 3.25 0 1 0 -6.5 0zM601.25 318.5 a3.25 3.25 0 1 0 6.5 0 a3.25 3.25 0 1 0 -6.5 0zM419.25 331.5 a3.25 3.25 0 1 0 6.5 0 a3.25 3.25 0 1 0 -6.5 0zM497.25 357.5 a3.25 3.25 0 1 0 6.5 0 a3.25 3.25 0 1 0 -6.5 0zM406.25 318.5 a3.25 3.25 0 1 0 6.5 0 a3.25 3.25 0 1 0 -6.5 0zM29.25 318.5 a3.25 3.25 0 1 0 6.5 0 a3.25 3.25 0 1 0 -6.5 0z" fill="rgba(78, 15, 217, 1)"></path><path d="M331.5 162.5L344.5 175.5L357.5 175.5L370.5 175.5L383.5 175.5L396.5 162.5L409.5 162.5L422.5 162.5L435.5 162.5M253.5 175.5L266.5 162.5M461.5 149.5L474.5 162.5L487.5 162.5L500.5 149.5L513.5 149.5L526.5 149.5L539.5 149.5L552.5 149.5L565.5 136.5L578.5 136.5L591.5 136.5L604.5 136.5M175.5 188.5L188.5 188.5L201.5 188.5L214.5 188.5L227.5 188.5M448.5 149.5L461.5 162.5L474.5 175.5L487.5 175.5L500.5 175.5L513.5 175.5L526.5 175.5L539.5 175.5L552.5 175.5L565.5 175.5L578.5 162.5L591.5 162.5L604.5 162.5L617.5 162.5M500.5 136.5L513.5 136.5L526.5 136.5L539.5 136.5L552.5 136.5M292.5 162.5L305.5 175.5L318.5 175.5L331.5 175.5M630.5 123.5L643.5 136.5L656.5 136.5M734.5 110.5L747.5 123.5L760.5 123.5L773.5 123.5L786.5 110.5L799.5 97.5M617.5 123.5L630.5 136.5L643.5 149.5M266.5 175.5L279.5 175.5L292.5 175.5M695.5 123.5L708.5 136.5L721.5 136.5L734.5 136.5L747.5 136.5L760.5 136.5M370.5 149.5L383.5 162.5M682.5 123.5L695.5 136.5M344.5 162.5L357.5 162.5M-6.5 240.5L6.5 240.5L19.5 240.5L32.5 227.5L45.5 214.5L58.5 214.5L71.5 201.5L84.5 201.5L97.5 201.5L110.5 201.5L123.5 201.5L136.5 201.5L149.5 188.5L162.5 188.5L175.5 188.5L188.5 175.5L201.5 175.5L214.5 175.5L227.5 175.5L240.5 175.5L253.5 175.5L266.5 175.5L279.5 162.5L292.5 162.5L305.5 162.5L318.5 162.5L331.5 162.5L344.5 162.5L357.5 149.5L370.5 149.5L383.5 149.5L396.5 149.5L409.5 149.5L422.5 149.5L435.5 149.5L448.5 149.5L461.5 149.5L474.5 149.5L487.5 149.5L500.5 136.5L513.5 123.5L526.5 123.5L539.5 123.5L552.5 123.5L565.5 123.5L578.5 123.5L591.5 123.5L604.5 123.5L617.5 123.5L630.5 123.5L643.5 123.5L656.5 123.5L669.5 123.5L682.5 123.5L695.5 123.5L708.5 123.5L721.5 123.5L734.5 110.5L747.5 110.5L760.5 97.5L773.5 97.5" stroke="rgba(78, 15, 217, 1)" stroke-width="2.17"></path><path d="M770.25 97.5 a3.25 3.25 0 1 0 6.5 0 a3.25 3.25 0 1 0 -6.5 0zM432.25 162.5 a3.25 3.25 0 1 0 6.5 0 a3.25 3.25 0 1 0 -6.5 0zM263.25 162.5 a3.25 3.25 0 1 0 6.5 0 a3.25 3.25 0 1 0 -6.5 0zM601.25 136.5 a3.25 3.25 0 1 0 6.5 0 a3.25 3.25 0 1 0 -6.5 0zM224.25 188.5 a3.25 3.25 0 1 0 6.5 0 a3.25 3.25 0 1 0 -6.5 0zM614.25 162.5 a3.25 3.25 0 1 0 6.5 0 a3.25 3.25 0 1 0 -6.5 0zM549.25 136.5 a3.25 3.25 0 1 0 6.5 0 a3.25 3.25 0 1 0 -6.5 0zM328.25 175.5 a3.25 3.25 0 1 0 6.5 0 a3.25 3.25 0 1 0 -6.5 0zM653.25 136.5 a3.25 3.25 0 1 0 6.5 0 a3.25 3.25 0 1 0 -6.5 0zM796.25 97.5 a3.25 3.25 0 1 0 6.5 0 a3.25 3.25 0 1 0 -6.5 0zM640.25 149.5 a3.25 3.25 0 1 0 6.5 0 a3.25 3.25 0 1 0 -6.5 0zM289.25 175.5 a3.25 3.25 0 1 0 6.5 0 a3.25 3.25 0 1 0 -6.5 0zM757.25 136.5 a3.25 3.25 0 1 0 6.5 0 a3.25 3.25 0 1 0 -6.5 0zM380.25 162.5 a3.25 3.25 0 1 0 6.5 0 a3.25 3.25 0 1 0 -6.5 0zM692.25 136.5 a3.25 3.25 0 1 0 6.5 0 a3.25 3.25 0 1 0 -6.5 0zM354.25 162.5 a3.25 3.25 0 1 0 6.5 0 a3.25 3.25 0 1 0 -6.5 0z" fill="rgba(78, 15, 217, 1)"></path><path d="M838.5 409.5L851.5 396.5L864.5 396.5L877.5 396.5L890.5 396.5L903.5 396.5M617.5 396.5L630.5 383.5L643.5 383.5L656.5 383.5M6.5 331.5L19.5 331.5M773.5 409.5L786.5 396.5L799.5 396.5M552.5 383.5L565.5 370.5L578.5 370.5L591.5 370.5L604.5 383.5L617.5 383.5L630.5 370.5M656.5 409.5L669.5 396.5L682.5 396.5L695.5 396.5L708.5 396.5L721.5 396.5M526.5 383.5L539.5 370.5L552.5 370.5M422.5 357.5L435.5 370.5M136.5 344.5L149.5 344.5L162.5 344.5M760.5 409.5L773.5 396.5L786.5 383.5L799.5 383.5L812.5 383.5L825.5 383.5L838.5 396.5M500.5 370.5L513.5 357.5M357.5 357.5L370.5 370.5L383.5 370.5L396.5 370.5M513.5 383.5L526.5 370.5L539.5 357.5L552.5 357.5M331.5 357.5L344.5 370.5L357.5 370.5M201.5 370.5L214.5 357.5M734.5 409.5L747.5 396.5L760.5 396.5L773.5 383.5L786.5 370.5L799.5 370.5L812.5 370.5M409.5 357.5L422.5 370.5M-6.5 331.5L6.5 331.5L19.5 344.5L32.5 344.5L45.5 344.5L58.5 344.5L71.5 344.5L84.5 344.5L97.5 344.5L110.5 344.5L123.5 344.5L136.5 344.5L149.5 357.5L162.5 357.5L175.5 357.5L188.5 357.5L201.5 370.5L214.5 370.5L227.5 370.5L240.5 370.5L253.5 370.5L266.5 370.5L279.5 370.5L292.5 357.5L305.5 357.5L318.5 357.5L331.5 357.5L344.5 357.5L357.5 357.5L370.5 357.5L383.5 357.5L396.5 357.5L409.5 357.5L422.5 357.5L435.5 357.5L448.5 357.5L461.5 357.5L474.5 370.5L487.5 370.5L500.5 370.5L513.5 383.5L526.5 383.5L539.5 383.5L552.5 383.5L565.5 383.5L578.5 383.5L591.5 396.5L604.5 396.5L617.5 396.5L630.5 396.5L643.5 396.5L656.5 409.5L669.5 409.5L682.5 409.5L695.5 409.5L708.5 409.5L721.5 409.5L734.5 409.5L747.5 409.5L760.5 409.5L773.5 409.5L786.5 409.5L799.5 409.5L812.5 409.5L825.5 409.5L838.5 409.5L851.5 409.5L864.5 409.5L877.5 409.5L890.5 409.5L903.5 409.5" stroke="#dd1133" stroke-width="2.17"></path><path d="M900.25 409.5 a3.25 3.25 0 1 0 6.5 0 a3.25 3.25 0 1 0 -6.5 0zM900.25 396.5 a3.25 3.25 0 1 0 6.5 0 a3.25 3.25 0 1 0 -6.5 0zM653.25 383.5 a3.25 3.25 0 1 0 6.5 0 a3.25 3.25 0 1 0 -6.5 0zM16.25 331.5 a3.25 3.25 0 1 0 6.5 0 a3.25 3.25 0 1 0 -6.5 0zM796.25 396.5 a3.25 3.25 0 1 0 6.5 0 a3.25 3.25 0 1 0 -6.5 0zM627.25 370.5 a3.25 3.25 0 1 0 6.5 0 a3.25 3.25 0 1 0 -6.5 0zM718.25 396.5 a3.25 3.25 0 1 0 6.5 0 a3.25 3.25 0 1 0 -6.5 0zM549.25 370.5 a3.25 3.25 0 1 0 6.5 0 a3.25 3.25 0 1 0 -6.5 0zM432.25 370.5 a3.25 3.25 0 1 0 6.5 0 a3.25 3.25 0 1 0 -6.5 0zM159.25 344.5 a3.25 3.25 0 1 0 6.5 0 a3.25 3.25 0 1 0 -6.5 0zM835.25 396.5 a3.25 3.25 0 1 0 6.5 0 a3.25 3.25 0 1 0 -6.5 0zM510.25 357.5 a3.25 3.25 0 1 0 6.5 0 a3.25 3.25 0 1 0 -6.5 0zM393.25 370.5 a3.25 3.25 0 1 0 6.5 0 a3.25 3.25 0 1 0 -6.5 0zM549.25 357.5 a3.25 3.25 0 1 0 6.5 0 a3.25 3.25 0 1 0 -6.5 0zM354.25 370.5 a3.25 3.25 0 1 0 6.5 0 a3.25 3.25 0 1 0 -6.5 0zM211.25 357.5 a3.25 3.25 0 1 0 6.5 0 a3.25 3.25 0 1 0 -6.5 0zM809.25 370.5 a3.25 3.25 0 1 0 6.5 0 a3.25 3.25 0 1 0 -6.5 0zM419.25 370.5 a3.25 3.25 0 1 0 6.5 0 a3.25 3.25 0 1 0 -6.5 0z" fill="#dd1133"></path><path d="M110.5 188.5L123.5 175.5L136.5 175.5M97.5 188.5L110.5 175.5M214.5 162.5L227.5 149.5M149.5 175.5L162.5 162.5L175.5 162.5M-6.5 227.5L6.5 227.5L19.5 227.5L32.5 214.5L45.5 201.5L58.5 201.5L71.5 188.5L84.5 188.5L97.5 188.5L110.5 188.5L123.5 188.5L136.5 188.5L149.5 175.5L162.5 175.5L175.5 175.5L188.5 162.5L201.5 162.5L214.5 162.5L227.5 162.5" stroke="rgba(15, 75, 217, 1)" stroke-width="2.17"></path><path d="M224.25 162.5 a3.25 3.25 0 1 0 6.5 0 a3.25 3.25 0 1 0 -6.5 0zM133.25 175.5 a3.25 3.25 0 1 0 6.5 0 a3.25 3.25 0 1 0 -6.5 0zM107.25 175.5 a3.25 3.25 0 1 0 6.5 0 a3.25 3.25 0 1 0 -6.5 0zM224.25 149.5 a3.25 3.25 0 1 0 6.5 0 a3.25 3.25 0 1 0 -6.5 0zM172.25 162.5 a3.25 3.25 0 1 0 6.5 0 a3.25 3.25 0 1 0 -6.5 0z" fill="rgba(15, 75, 217, 1)"></path><path d="M617.5 409.5L630.5 422.5M474.5 383.5L487.5 396.5L500.5 396.5L513.5 409.5L526.5 409.5L539.5 409.5L552.5 409.5L565.5 409.5L578.5 422.5L591.5 422.5L604.5 422.5L617.5 422.5L630.5 435.5M318.5 383.5L331.5 396.5L344.5 396.5L357.5 396.5L370.5 396.5L383.5 396.5L396.5 396.5L409.5 396.5L422.5 396.5M955.5 422.5L968.5 409.5L981.5 409.5L994.5 409.5M799.5 422.5L812.5 435.5L825.5 435.5L838.5 435.5L851.5 435.5L864.5 435.5L877.5 435.5L890.5 435.5L903.5 435.5L916.5 435.5L929.5 435.5L942.5 435.5L955.5 435.5L968.5 435.5L981.5 435.5L994.5 435.5M32.5 357.5L45.5 370.5L58.5 370.5L71.5 370.5L84.5 370.5M435.5 383.5L448.5 383.5L461.5 383.5L474.5 396.5L487.5 409.5M279.5 383.5L292.5 383.5L305.5 383.5L318.5 396.5L331.5 409.5L344.5 409.5L357.5 409.5L370.5 409.5L383.5 409.5M305.5 370.5L318.5 370.5L331.5 370.5M266.5 383.5L279.5 396.5L292.5 396.5L305.5 396.5M253.5 383.5L266.5 396.5L279.5 409.5L292.5 409.5L305.5 409.5L318.5 409.5L331.5 422.5M942.5 422.5L955.5 409.5L968.5 396.5L981.5 396.5L994.5 396.5L1007.5 396.5L1020.5 396.5L1033.5 396.5L1046.5 396.5L1059.5 409.5M916.5 422.5L929.5 409.5L942.5 409.5L955.5 396.5L968.5 383.5L981.5 383.5L994.5 383.5L1007.5 383.5L1020.5 383.5L1033.5 383.5L1046.5 383.5L1059.5 383.5M227.5 383.5L240.5 396.5M-6.5 344.5L6.5 344.5L19.5 357.5L32.5 357.5L45.5 357.5L58.5 357.5L71.5 357.5L84.5 357.5L97.5 357.5L110.5 357.5L123.5 357.5L136.5 357.5L149.5 370.5L162.5 370.5L175.5 370.5L188.5 370.5L201.5 383.5L214.5 383.5L227.5 383.5L240.5 383.5L253.5 383.5L266.5 383.5L279.5 383.5L292.5 370.5L305.5 370.5L318.5 383.5L331.5 383.5L344.5 383.5L357.5 383.5L370.5 383.5L383.5 383.5L396.5 383.5L409.5 383.5L422.5 383.5L435.5 383.5L448.5 370.5L461.5 370.5L474.5 383.5L487.5 383.5L500.5 383.5L513.5 396.5L526.5 396.5L539.5 396.5L552.5 396.5L565.5 396.5L578.5 396.5L591.5 409.5L604.5 409.5L617.5 409.5L630.5 409.5L643.5 422.5L656.5 422.5L669.5 422.5L682.5 422.5L695.5 422.5L708.5 422.5L721.5 422.5L734.5 422.5L747.5 422.5L760.5 422.5L773.5 422.5L786.5 422.5L799.5 422.5L812.5 422.5L825.5 422.5L838.5 422.5L851.5 422.5L864.5 422.5L877.5 422.5L890.5 422.5L903.5 422.5L916.5 422.5L929.5 422.5L942.5 422.5L955.5 422.5L968.5 422.5" stroke="rgba(15, 217, 47, 1)" stroke-width="2.17"></path><path d="M965.25 422.5 a3.25 3.25 0 1 0 6.5 0 a3.25 3.25 0 1 0 -6.5 0zM627.25 422.5 a3.25 3.25 0 1 0 6.5 0 a3.25 3.25 0 1 0 -6.5 0zM627.25 435.5 a3.25 3.25 0 1 0 6.5 0 a3.25 3.25 0 1 0 -6.5 0zM419.25 396.5 a3.25 3.25 0 1 0 6.5 0 a3.25 3.25 0 1 0 -6.5 0zM991.25 409.5 a3.25 3.25 0 1 0 6.5 0 a3.25 3.25 0 1 0 -6.5 0zM991.25 435.5 a3.25 3.25 0 1 0 6.5 0 a3.25 3.25 0 1 0 -6.5 0zM81.25 370.5 a3.25 3.25 0 1 0 6.5 0 a3.25 3.25 0 1 0 -6.5 0zM484.25 409.5 a3.25 3.25 0 1 0 6.5 0 a3.25 3.25 0 1 0 -6.5 0zM380.25 409.5 a3.25 3.25 0 1 0 6.5 0 a3.25 3.25 0 1 0 -6.5 0zM328.25 370.5 a3.25 3.25 0 1 0 6.5 0 a3.25 3.25 0 1 0 -6.5 0zM302.25 396.5 a3.25 3.25 0 1 0 6.5 0 a3.25 3.25 0 1 0 -6.5 0zM328.25 422.5 a3.25 3.25 0 1 0 6.5 0 a3.25 3.25 0 1 0 -6.5 0zM1056.25 409.5 a3.25 3.25 0 1 0 6.5 0 a3.25 3.25 0 1 0 -6.5 0zM1056.25 383.5 a3.25 3.25 0 1 0 6.5 0 a3.25 3.25 0 1 0 -6.5 0zM237.25 396.5 a3.25 3.25 0 1 0 6.5 0 a3.25 3.25 0 1 0 -6.5 0z" fill="rgba(15, 217, 47, 1)"></path><path d="M201.5 149.5L214.5 149.5M240.5 149.5L253.5 162.5M136.5 162.5L149.5 162.5M305.5 149.5L318.5 149.5L331.5 149.5L344.5 149.5M84.5 175.5L97.5 175.5M-6.5 214.5L6.5 214.5L19.5 214.5L32.5 201.5L45.5 188.5L58.5 188.5L71.5 175.5L84.5 175.5L97.5 162.5L110.5 162.5L123.5 162.5L136.5 162.5L149.5 149.5L162.5 149.5L175.5 149.5L188.5 149.5L201.5 149.5L214.5 136.5L227.5 136.5L240.5 149.5L253.5 149.5L266.5 149.5L279.5 149.5L292.5 149.5L305.5 149.5L318.5 136.5L331.5 136.5L344.5 136.5L357.5 136.5L370.5 136.5L383.5 136.5L396.5 136.5L409.5 136.5L422.5 136.5L435.5 136.5L448.5 136.5L461.5 136.5L474.5 136.5L487.5 136.5L500.5 123.5L513.5 110.5L526.5 110.5L539.5 110.5L552.5 110.5L565.5 110.5L578.5 110.5L591.5 110.5L604.5 110.5L617.5 110.5L630.5 110.5L643.5 110.5L656.5 110.5L669.5 110.5L682.5 110.5L695.5 110.5L708.5 110.5L721.5 110.5L734.5 97.5L747.5 97.5" stroke="rgba(15, 217, 47, 1)" stroke-width="2.17"></path><path d="M744.25 97.5 a3.25 3.25 0 1 0 6.5 0 a3.25 3.25 0 1 0 -6.5 0zM211.25 149.5 a3.25 3.25 0 1 0 6.5 0 a3.25 3.25 0 1 0 -6.5 0zM250.25 162.5 a3.25 3.25 0 1 0 6.5 0 a3.25 3.25 0 1 0 -6.5 0zM146.25 162.5 a3.25 3.25 0 1 0 6.5 0 a3.25 3.25 0 1 0 -6.5 0zM341.25 149.5 a3.25 3.25 0 1 0 6.5 0 a3.25 3.25 0 1 0 -6.5 0zM94.25 175.5 a3.25 3.25 0 1 0 6.5 0 a3.25 3.25 0 1 0 -6.5 0z" fill="rgba(15, 217, 47, 1)"></path><path d="M383.5 435.5L396.5 422.5L409.5 422.5L422.5 435.5L435.5 435.5L448.5 435.5L461.5 435.5L474.5 435.5L487.5 435.5M292.5 435.5L305.5 422.5L318.5 422.5M123.5 370.5L136.5 383.5L149.5 396.5M240.5 409.5L253.5 422.5M370.5 435.5L383.5 422.5M19.5 370.5L32.5 370.5M227.5 409.5L240.5 422.5M266.5 422.5L279.5 422.5L292.5 422.5M-6.5 357.5L6.5 357.5L19.5 370.5L32.5 383.5L45.5 383.5L58.5 383.5L71.5 383.5L84.5 383.5L97.5 370.5L110.5 370.5L123.5 370.5L136.5 370.5L149.5 383.5L162.5 383.5L175.5 383.5L188.5 383.5L201.5 396.5L214.5 396.5L227.5 409.5L240.5 409.5L253.5 409.5L266.5 422.5L279.5 435.5L292.5 435.5L305.5 435.5L318.5 435.5L331.5 435.5L344.5 435.5L357.5 435.5L370.5 435.5L383.5 435.5L396.5 435.5" stroke="#dd1133" stroke-width="2.17"></path><path d="M393.25 435.5 a3.25 3.25 0 1 0 6.5 0 a3.25 3.25 0 1 0 -6.5 0zM484.25 435.5 a3.25 3.25 0 1 0 6.5 0 a3.25 3.25 0 1 0 -6.5 0zM315.25 422.5 a3.25 3.25 0 1 0 6.5 0 a3.25 3.25 0 1 0 -6.5 0zM146.25 396.5 a3.25 3.25 0 1 0 6.5 0 a3.25 3.25 0 1 0 -6.5 0zM250.25 422.5 a3.25 3.25 0 1 0 6.5 0 a3.25 3.25 0 1 0 -6.5 0zM380.25 422.5 a3.25 3.25 0 1 0 6.5 0 a3.25 3.25 0 1 0 -6.5 0zM29.25 370.5 a3.25 3.25 0 1 0 6.5 0 a3.25 3.25 0 1 0 -6.5 0zM237.25 422.5 a3.25 3.25 0 1 0 6.5 0 a3.25 3.25 0 1 0 -6.5 0zM289.25 422.5 a3.25 3.25 0 1 0 6.5 0 a3.25 3.25 0 1 0 -6.5 0z" fill="#dd1133"></path><path d="M851.5 84.5L864.5 71.5L877.5 58.5L890.5 58.5L903.5 58.5L916.5 58.5L929.5 58.5L942.5 58.5L955.5 58.5L968.5 58.5L981.5 58.5L994.5 58.5L1007.5 58.5L1020.5 58.5L1033.5 58.5L1046.5 71.5L1059.5 71.5L1072.5 71.5L1085.5 71.5L1098.5 71.5L1111.5 71.5L1124.5 71.5L1137.5 71.5L1150.5 71.5L1163.5 71.5L1176.5 71.5L1189.5 71.5M357.5 123.5L370.5 110.5L383.5 97.5L396.5 97.5L409.5 97.5L422.5 97.5L435.5 97.5L448.5 97.5L461.5 97.5L474.5 97.5L487.5 97.5L500.5 97.5L513.5 84.5L526.5 71.5L539.5 71.5L552.5 71.5L565.5 84.5L578.5 84.5L591.5 84.5L604.5 84.5L617.5 84.5L630.5 84.5L643.5 71.5L656.5 71.5L669.5 71.5L682.5 71.5M344.5 123.5L357.5 110.5L370.5 97.5L383.5 84.5L396.5 84.5L409.5 84.5M708.5 97.5L721.5 84.5L734.5 71.5L747.5 71.5L760.5 71.5L773.5 71.5L786.5 71.5L799.5 71.5L812.5 71.5M903.5 110.5L916.5 97.5L929.5 97.5L942.5 84.5L955.5 84.5M682.5 97.5L695.5 84.5L708.5 84.5M396.5 123.5L409.5 110.5L422.5 110.5L435.5 110.5L448.5 110.5L461.5 110.5M474.5 110.5L487.5 123.5M526.5 97.5L539.5 84.5L552.5 84.5M383.5 123.5L396.5 110.5M643.5 97.5L656.5 84.5L669.5 84.5L682.5 84.5M123.5 149.5L136.5 136.5M877.5 84.5L890.5 84.5L903.5 84.5L916.5 84.5L929.5 84.5L942.5 71.5M812.5 84.5L825.5 97.5L838.5 97.5M461.5 123.5L474.5 123.5M318.5 123.5L331.5 110.5L344.5 110.5M890.5 97.5L903.5 97.5M838.5 84.5L851.5 71.5L864.5 58.5L877.5 45.5L890.5 45.5L903.5 45.5L916.5 45.5L929.5 45.5L942.5 45.5L955.5 45.5L968.5 45.5L981.5 45.5L994.5 32.5L1007.5 32.5L1020.5 32.5M-6.5 201.5L6.5 201.5L19.5 201.5L32.5 188.5L45.5 175.5L58.5 175.5L71.5 162.5L84.5 162.5L97.5 149.5L110.5 149.5L123.5 149.5L136.5 149.5L149.5 136.5L162.5 136.5L175.5 136.5L188.5 136.5L201.5 136.5L214.5 123.5L227.5 123.5L240.5 136.5L253.5 136.5L266.5 136.5L279.5 136.5L292.5 136.5L305.5 136.5L318.5 123.5L331.5 123.5L344.5 123.5L357.5 123.5L370.5 123.5L383.5 123.5L396.5 123.5L409.5 123.5L422.5 123.5L435.5 123.5L448.5 123.5L461.5 123.5L474.5 110.5L487.5 110.5L500.5 110.5L513.5 97.5L526.5 97.5L539.5 97.5L552.5 97.5L565.5 97.5L578.5 97.5L591.5 97.5L604.5 97.5L617.5 97.5L630.5 97.5L643.5 97.5L656.5 97.5L669.5 97.5L682.5 97.5L695.5 97.5L708.5 97.5L721.5 97.5L734.5 84.5L747.5 84.5L760.5 84.5L773.5 84.5L786.5 84.5L799.5 84.5L812.5 84.5L825.5 84.5L838.5 84.5L851.5 84.5L864.5 84.5L877.5 84.5L890.5 97.5L903.5 110.5L916.5 110.5L929.5 110.5L942.5 110.5L955.5 110.5" stroke="rgba(15, 75, 217, 1)" stroke-width="2.17"></path><path d="M952.25 110.5 a3.25 3.25 0 1 0 6.5 0 a3.25 3.25 0 1 0 -6.5 0zM1186.25 71.5 a3.25 3.25 0 1 0 6.5 0 a3.25 3.25 0 1 0 -6.5 0zM679.25 71.5 a3.25 3.25 0 1 0 6.5 0 a3.25 3.25 0 1 0 -6.5 0zM406.25 84.5 a3.25 3.25 0 1 0 6.5 0 a3.25 3.25 0 1 0 -6.5 0zM809.25 71.5 a3.25 3.25 0 1 0 6.5 0 a3.25 3.25 0 1 0 -6.5 0zM952.25 84.5 a3.25 3.25 0 1 0 6.5 0 a3.25 3.25 0 1 0 -6.5 0zM705.25 84.5 a3.25 3.25 0 1 0 6.5 0 a3.25 3.25 0 1 0 -6.5 0zM458.25 110.5 a3.25 3.25 0 1 0 6.5 0 a3.25 3.25 0 1 0 -6.5 0zM484.25 123.5 a3.25 3.25 0 1 0 6.5 0 a3.25 3.25 0 1 0 -6.5 0zM549.25 84.5 a3.25 3.25 0 1 0 6.5 0 a3.25 3.25 0 1 0 -6.5 0zM393.25 110.5 a3.25 3.25 0 1 0 6.5 0 a3.25 3.25 0 1 0 -6.5 0zM679.25 84.5 a3.25 3.25 0 1 0 6.5 0 a3.25 3.25 0 1 0 -6.5 0zM133.25 136.5 a3.25 3.25 0 1 0 6.5 0 a3.25 3.25 0 1 0 -6.5 0zM939.25 71.5 a3.25 3.25 0 1 0 6.5 0 a3.25 3.25 0 1 0 -6.5 0zM835.25 97.5 a3.25 3.25 0 1 0 6.5 0 a3.25 3.25 0 1 0 -6.5 0zM471.25 123.5 a3.25 3.25 0 1 0 6.5 0 a3.25 3.25 0 1 0 -6.5 0zM341.25 110.5 a3.25 3.25 0 1 0 6.5 0 a3.25 3.25 0 1 0 -6.5 0zM900.25 97.5 a3.25 3.25 0 1 0 6.5 0 a3.25 3.25 0 1 0 -6.5 0zM1017.25 32.5 a3.25 3.25 0 1 0 6.5 0 a3.25 3.25 0 1 0 -6.5 0z" fill="rgba(15, 75, 217, 1)"></path><path d="M97.5 409.5L110.5 396.5L123.5 396.5L136.5 396.5M201.5 409.5L214.5 409.5M84.5 409.5L97.5 396.5L110.5 383.5L123.5 383.5M175.5 396.5L188.5 409.5M-6.5 370.5L6.5 370.5L19.5 383.5L32.5 396.5L45.5 396.5L58.5 396.5L71.5 396.5L84.5 409.5L97.5 409.5L110.5 409.5L123.5 409.5L136.5 409.5L149.5 409.5L162.5 396.5L175.5 396.5L188.5 396.5L201.5 409.5L214.5 422.5" stroke="rgba(78, 15, 217, 1)" stroke-width="2.17"></path><path d="M211.25 422.5 a3.25 3.25 0 1 0 6.5 0 a3.25 3.25 0 1 0 -6.5 0zM133.25 396.5 a3.25 3.25 0 1 0 6.5 0 a3.25 3.25 0 1 0 -6.5 0zM211.25 409.5 a3.25 3.25 0 1 0 6.5 0 a3.25 3.25 0 1 0 -6.5 0zM120.25 383.5 a3.25 3.25 0 1 0 6.5 0 a3.25 3.25 0 1 0 -6.5 0zM185.25 409.5 a3.25 3.25 0 1 0 6.5 0 a3.25 3.25 0 1 0 -6.5 0z" fill="rgba(78, 15, 217, 1)"></path><path d="M370.5 71.5L383.5 71.5L396.5 71.5L409.5 58.5L422.5 58.5M97.5 136.5L110.5 136.5M617.5 32.5L630.5 45.5L643.5 45.5L656.5 45.5L669.5 45.5L682.5 45.5L695.5 45.5L708.5 45.5L721.5 45.5M318.5 71.5L331.5 58.5L344.5 58.5L357.5 58.5L370.5 58.5M214.5 110.5L227.5 110.5L240.5 110.5L253.5 110.5L266.5 110.5L279.5 110.5L292.5 110.5L305.5 97.5L318.5 97.5L331.5 97.5L344.5 84.5L357.5 84.5L370.5 84.5M383.5 58.5L396.5 58.5M188.5 123.5L201.5 110.5M292.5 71.5L305.5 84.5M526.5 32.5L539.5 45.5L552.5 45.5L565.5 58.5L578.5 71.5L591.5 71.5M6.5 188.5L19.5 188.5M513.5 32.5L526.5 45.5L539.5 58.5L552.5 58.5M474.5 45.5L487.5 45.5L500.5 45.5L513.5 45.5L526.5 58.5M591.5 32.5L604.5 45.5L617.5 45.5L630.5 58.5M435.5 45.5L448.5 58.5L461.5 58.5L474.5 58.5L487.5 58.5L500.5 58.5L513.5 58.5M-6.5 188.5L6.5 188.5L19.5 175.5L32.5 175.5L45.5 162.5L58.5 162.5L71.5 149.5L84.5 136.5L97.5 136.5L110.5 123.5L123.5 123.5L136.5 123.5L149.5 123.5L162.5 123.5L175.5 123.5L188.5 123.5L201.5 123.5L214.5 110.5L227.5 97.5L240.5 97.5L253.5 84.5L266.5 71.5L279.5 71.5L292.5 71.5L305.5 71.5L318.5 71.5L331.5 71.5L344.5 71.5L357.5 71.5L370.5 71.5L383.5 58.5L396.5 45.5L409.5 45.5L422.5 45.5L435.5 45.5L448.5 45.5L461.5 45.5L474.5 45.5L487.5 32.5L500.5 32.5L513.5 32.5L526.5 32.5L539.5 32.5L552.5 32.5L565.5 32.5L578.5 32.5L591.5 32.5L604.5 32.5L617.5 32.5L630.5 32.5L643.5 32.5L656.5 32.5L669.5 32.5L682.5 32.5L695.5 32.5L708.5 32.5L721.5 32.5L734.5 32.5L747.5 32.5" stroke="rgba(15, 75, 217, 1)" stroke-width="2.17"></path><path d="M744.25 32.5 a3.25 3.25 0 1 0 6.5 0 a3.25 3.25 0 1 0 -6.5 0zM419.25 58.5 a3.25 3.25 0 1 0 6.5 0 a3.25 3.25 0 1 0 -6.5 0zM107.25 136.5 a3.25 3.25 0 1 0 6.5 0 a3.25 3.25 0 1 0 -6.5 0zM718.25 45.5 a3.25 3.25 0 1 0 6.5 0 a3.25 3.25 0 1 0 -6.5 0zM367.25 58.5 a3.25 3.25 0 1 0 6.5 0 a3.25 3.25 0 1 0 -6.5 0zM367.25 84.5 a3.25 3.25 0 1 0 6.5 0 a3.25 3.25 0 1 0 -6.5 0zM393.25 58.5 a3.25 3.25 0 1 0 6.5 0 a3.25 3.25 0 1 0 -6.5 0zM198.25 110.5 a3.25 3.25 0 1 0 6.5 0 a3.25 3.25 0 1 0 -6.5 0zM302.25 84.5 a3.25 3.25 0 1 0 6.5 0 a3.25 3.25 0 1 0 -6.5 0zM588.25 71.5 a3.25 3.25 0 1 0 6.5 0 a3.25 3.25 0 1 0 -6.5 0zM16.25 188.5 a3.25 3.25 0 1 0 6.5 0 a3.25 3.25 0 1 0 -6.5 0zM549.25 58.5 a3.25 3.25 0 1 0 6.5 0 a3.25 3.25 0 1 0 -6.5 0zM523.25 58.5 a3.25 3.25 0 1 0 6.5 0 a3.25 3.25 0 1 0 -6.5 0zM627.25 58.5 a3.25 3.25 0 1 0 6.5 0 a3.25 3.25 0 1 0 -6.5 0zM510.25 58.5 a3.25 3.25 0 1 0 6.5 0 a3.25 3.25 0 1 0 -6.5 0z" fill="rgba(15, 75, 217, 1)"></path><path d="M656.5 435.5L669.5 448.5L682.5 448.5L695.5 448.5L708.5 448.5M578.5 448.5L591.5 461.5L604.5 461.5L617.5 461.5L630.5 461.5L643.5 461.5L656.5 461.5L669.5 461.5L682.5 461.5L695.5 461.5L708.5 461.5M526.5 448.5L539.5 461.5M539.5 448.5L552.5 435.5L565.5 435.5L578.5 435.5M305.5 448.5L318.5 461.5L331.5 474.5L344.5 474.5L357.5 474.5L370.5 474.5M747.5 435.5L760.5 448.5L773.5 461.5L786.5 474.5L799.5 474.5L812.5 474.5L825.5 474.5L838.5 474.5L851.5 474.5L864.5 474.5L877.5 487.5L890.5 487.5L903.5 487.5L916.5 487.5L929.5 487.5L942.5 487.5L955.5 487.5L968.5 500.5L981.5 500.5L994.5 500.5M630.5 448.5L643.5 448.5L656.5 448.5M357.5 448.5L370.5 461.5L383.5 461.5L396.5 461.5L409.5 461.5L422.5 461.5L435.5 461.5L448.5 461.5L461.5 461.5M58.5 409.5L71.5 422.5M552.5 448.5L565.5 461.5L578.5 461.5L591.5 474.5M279.5 448.5L292.5 461.5L305.5 461.5L318.5 474.5L331.5 487.5L344.5 487.5L357.5 487.5M487.5 448.5L500.5 461.5L513.5 461.5L526.5 461.5L539.5 474.5L552.5 474.5L565.5 474.5L578.5 474.5L591.5 487.5L604.5 487.5L617.5 500.5L630.5 500.5L643.5 500.5L656.5 500.5L669.5 500.5L682.5 500.5M721.5 435.5L734.5 448.5L747.5 448.5L760.5 461.5M773.5 435.5L786.5 448.5L799.5 448.5L812.5 448.5M591.5 448.5L604.5 435.5L617.5 435.5M-6.5 383.5L6.5 383.5L19.5 396.5L32.5 409.5L45.5 409.5L58.5 409.5L71.5 409.5L84.5 422.5L97.5 422.5L110.5 422.5L123.5 422.5L136.5 422.5L149.5 422.5L162.5 422.5L175.5 422.5L188.5 422.5L201.5 422.5L214.5 435.5L227.5 435.5L240.5 435.5L253.5 435.5L266.5 435.5L279.5 448.5L292.5 448.5L305.5 448.5L318.5 448.5L331.5 448.5L344.5 448.5L357.5 448.5L370.5 448.5L383.5 448.5L396.5 448.5L409.5 448.5L422.5 448.5L435.5 448.5L448.5 448.5L461.5 448.5L474.5 448.5L487.5 448.5L500.5 448.5L513.5 448.5L526.5 448.5L539.5 448.5L552.5 448.5L565.5 448.5L578.5 448.5L591.5 448.5L604.5 448.5L617.5 448.5L630.5 448.5L643.5 435.5L656.5 435.5L669.5 435.5L682.5 435.5L695.5 435.5L708.5 435.5L721.5 435.5L734.5 435.5L747.5 435.5L760.5 435.5L773.5 435.5L786.5 435.5" stroke="rgba(15, 75, 217, 1)" stroke-width="2.17"></path><path d="M783.25 435.5 a3.25 3.25 0 1 0 6.5 0 a3.25 3.25 0 1 0 -6.5 0zM705.25 448.5 a3.25 3.25 0 1 0 6.5 0 a3.25 3.25 0 1 0 -6.5 0zM705.25 461.5 a3.25 3.25 0 1 0 6.5 0 a3.25 3.25 0 1 0 -6.5 0zM536.25 461.5 a3.25 3.25 0 1 0 6.5 0 a3.25 3.25 0 1 0 -6.5 0zM575.25 435.5 a3.25 3.25 0 1 0 6.5 0 a3.25 3.25 0 1 0 -6.5 0zM367.25 474.5 a3.25 3.25 0 1 0 6.5 0 a3.25 3.25 0 1 0 -6.5 0zM991.25 500.5 a3.25 3.25 0 1 0 6.5 0 a3.25 3.25 0 1 0 -6.5 0zM653.25 448.5 a3.25 3.25 0 1 0 6.5 0 a3.25 3.25 0 1 0 -6.5 0zM458.25 461.5 a3.25 3.25 0 1 0 6.5 0 a3.25 3.25 0 1 0 -6.5 0zM68.25 422.5 a3.25 3.25 0 1 0 6.5 0 a3.25 3.25 0 1 0 -6.5 0zM588.25 474.5 a3.25 3.25 0 1 0 6.5 0 a3.25 3.25 0 1 0 -6.5 0zM354.25 487.5 a3.25 3.25 0 1 0 6.5 0 a3.25 3.25 0 1 0 -6.5 0zM679.25 500.5 a3.25 3.25 0 1 0 6.5 0 a3.25 3.25 0 1 0 -6.5 0zM757.25 461.5 a3.25 3.25 0 1 0 6.5 0 a3.25 3.25 0 1 0 -6.5 0zM809.25 448.5 a3.25 3.25 0 1 0 6.5 0 a3.25 3.25 0 1 0 -6.5 0zM614.25 435.5 a3.25 3.25 0 1 0 6.5 0 a3.25 3.25 0 1 0 -6.5 0z" fill="rgba(15, 75, 217, 1)"></path><path d="M201.5 97.5L214.5 84.5M279.5 45.5L292.5 58.5L305.5 58.5M175.5 110.5L188.5 110.5M266.5 58.5L279.5 58.5M-6.5 175.5L6.5 175.5L19.5 162.5L32.5 162.5L45.5 149.5L58.5 149.5L71.5 136.5L84.5 123.5L97.5 123.5L110.5 110.5L123.5 110.5L136.5 110.5L149.5 110.5L162.5 110.5L175.5 110.5L188.5 97.5L201.5 97.5L214.5 97.5L227.5 84.5L240.5 84.5L253.5 71.5L266.5 58.5L279.5 45.5L292.5 45.5L305.5 45.5L318.5 45.5L331.5 45.5L344.5 45.5L357.5 45.5L370.5 45.5L383.5 45.5L396.5 32.5L409.5 32.5L422.5 32.5L435.5 32.5L448.5 32.5L461.5 32.5L474.5 32.5" stroke="#dd1133" stroke-width="2.17"></path><path d="M471.25 32.5 a3.25 3.25 0 1 0 6.5 0 a3.25 3.25 0 1 0 -6.5 0zM211.25 84.5 a3.25 3.25 0 1 0 6.5 0 a3.25 3.25 0 1 0 -6.5 0zM302.25 58.5 a3.25 3.25 0 1 0 6.5 0 a3.25 3.25 0 1 0 -6.5 0zM185.25 110.5 a3.25 3.25 0 1 0 6.5 0 a3.25 3.25 0 1 0 -6.5 0zM276.25 58.5 a3.25 3.25 0 1 0 6.5 0 a3.25 3.25 0 1 0 -6.5 0z" fill="#dd1133"></path><path d="M175.5 435.5L188.5 448.5L201.5 448.5M227.5 448.5L240.5 461.5L253.5 461.5L266.5 461.5L279.5 461.5M45.5 422.5L58.5 422.5M162.5 435.5L175.5 448.5L188.5 461.5L201.5 461.5L214.5 461.5M149.5 435.5L162.5 448.5L175.5 461.5M-6.5 396.5L6.5 396.5L19.5 409.5L32.5 422.5L45.5 422.5L58.5 435.5L71.5 435.5L84.5 435.5L97.5 435.5L110.5 435.5L123.5 435.5L136.5 435.5L149.5 435.5L162.5 435.5L175.5 435.5L188.5 435.5L201.5 435.5L214.5 448.5L227.5 448.5L240.5 448.5L253.5 448.5" stroke="rgba(15, 75, 217, 1)" stroke-width="2.17"></path><path d="M250.25 448.5 a3.25 3.25 0 1 0 6.5 0 a3.25 3.25 0 1 0 -6.5 0zM198.25 448.5 a3.25 3.25 0 1 0 6.5 0 a3.25 3.25 0 1 0 -6.5 0zM276.25 461.5 a3.25 3.25 0 1 0 6.5 0 a3.25 3.25 0 1 0 -6.5 0zM55.25 422.5 a3.25 3.25 0 1 0 6.5 0 a3.25 3.25 0 1 0 -6.5 0zM211.25 461.5 a3.25 3.25 0 1 0 6.5 0 a3.25 3.25 0 1 0 -6.5 0zM172.25 461.5 a3.25 3.25 0 1 0 6.5 0 a3.25 3.25 0 1 0 -6.5 0z" fill="rgba(15, 75, 217, 1)"></path><path d="M-6.5 162.5L6.5 162.5" stroke="#dd1133" stroke-width="2.17"></path><path d="M3.25 162.5 a3.25 3.25 0 1 0 6.5 0 a3.25 3.25 0 1 0 -6.5 0z" fill="#dd1133"></path><path d="M71.5 448.5L84.5 461.5L97.5 461.5L110.5 461.5M58.5 448.5L71.5 461.5L84.5 474.5L97.5 474.5M-6.5 409.5L6.5 409.5L19.5 422.5L32.5 435.5L45.5 435.5L58.5 448.5L71.5 448.5L84.5 448.5L97.5 448.5L110.5 448.5L123.5 448.5" stroke="rgba(78, 15, 217, 1)" stroke-width="2.17"></path><path d="M120.25 448.5 a3.25 3.25 0 1 0 6.5 0 a3.25 3.25 0 1 0 -6.5 0zM107.25 461.5 a3.25 3.25 0 1 0 6.5 0 a3.25 3.25 0 1 0 -6.5 0zM94.25 474.5 a3.25 3.25 0 1 0 6.5 0 a3.25 3.25 0 1 0 -6.5 0z" fill="rgba(78, 15, 217, 1)"></path><path d="M45.5 136.5L58.5 123.5L71.5 110.5L84.5 97.5L97.5 97.5L110.5 84.5M123.5 97.5L136.5 84.5L149.5 84.5L162.5 84.5L175.5 84.5M19.5 149.5L32.5 136.5L45.5 123.5L58.5 110.5L71.5 97.5L84.5 84.5L97.5 84.5L110.5 71.5L123.5 71.5L136.5 71.5M214.5 71.5L227.5 58.5L240.5 58.5L253.5 45.5M6.5 149.5L19.5 136.5L32.5 123.5L45.5 110.5L58.5 97.5L71.5 84.5L84.5 71.5L97.5 71.5L110.5 58.5L123.5 58.5M188.5 84.5L201.5 84.5M201.5 71.5L214.5 58.5L227.5 45.5L240.5 32.5L253.5 32.5M-6.5 149.5L6.5 149.5L19.5 149.5L32.5 149.5L45.5 136.5L58.5 136.5L71.5 123.5L84.5 110.5L97.5 110.5L110.5 97.5L123.5 97.5L136.5 97.5L149.5 97.5L162.5 97.5L175.5 97.5L188.5 84.5L201.5 71.5L214.5 71.5L227.5 71.5L240.5 71.5L253.5 58.5L266.5 45.5L279.5 32.5L292.5 32.5L305.5 32.5L318.5 32.5L331.5 32.5L344.5 32.5L357.5 32.5L370.5 32.5L383.5 32.5" stroke="rgba(78, 15, 217, 1)" stroke-width="2.17"></path><path d="M380.25 32.5 a3.25 3.25 0 1 0 6.5 0 a3.25 3.25 0 1 0 -6.5 0zM107.25 84.5 a3.25 3.25 0 1 0 6.5 0 a3.25 3.25 0 1 0 -6.5 0zM172.25 84.5 a3.25 3.25 0 1 0 6.5 0 a3.25 3.25 0 1 0 -6.5 0zM133.25 71.5 a3.25 3.25 0 1 0 6.5 0 a3.25 3.25 0 1 0 -6.5 0zM250.25 45.5 a3.25 3.25 0 1 0 6.5 0 a3.25 3.25 0 1 0 -6.5 0zM120.25 58.5 a3.25 3.25 0 1 0 6.5 0 a3.25 3.25 0 1 0 -6.5 0zM198.25 84.5 a3.25 3.25 0 1 0 6.5 0 a3.25 3.25 0 1 0 -6.5 0zM250.25 32.5 a3.25 3.25 0 1 0 6.5 0 a3.25 3.25 0 1 0 -6.5 0z" fill="rgba(78, 15, 217, 1)"></path></g></g><defs><mask id="SvgjsMask1973"><rect width="1440" height="560" fill="#ffffff"></rect></mask><linearGradient x1="100%" y1="50%" x2="0%" y2="50%" gradientUnits="userSpaceOnUse" id="SvgjsLinearGradient1974"><stop stop-color="#0e2a47" offset="0"></stop><stop stop-color="rgba(24, 99, 165, 1)" offset="0.84"></stop><stop stop-color="rgba(24, 99, 165, 1)" offset="1"></stop></linearGradient><mask id="SvgjsMask1975"><rect width="1440" height="560" fill="white"></rect><path d="M238.87 292.5 a1.63 1.63 0 1 0 3.26 0 a1.63 1.63 0 1 0 -3.26 0zM160.87 266.5 a1.63 1.63 0 1 0 3.26 0 a1.63 1.63 0 1 0 -3.26 0zM277.87 292.5 a1.63 1.63 0 1 0 3.26 0 a1.63 1.63 0 1 0 -3.26 0zM173.87 305.5 a1.63 1.63 0 1 0 3.26 0 a1.63 1.63 0 1 0 -3.26 0zM212.87 279.5 a1.63 1.63 0 1 0 3.26 0 a1.63 1.63 0 1 0 -3.26 0zM134.87 305.5 a1.63 1.63 0 1 0 3.26 0 a1.63 1.63 0 1 0 -3.26 0z" fill="black"></path><path d="M277.87 201.5 a1.63 1.63 0 1 0 3.26 0 a1.63 1.63 0 1 0 -3.26 0zM251.87 227.5 a1.63 1.63 0 1 0 3.26 0 a1.63 1.63 0 1 0 -3.26 0zM108.87 240.5 a1.63 1.63 0 1 0 3.26 0 a1.63 1.63 0 1 0 -3.26 0zM186.87 227.5 a1.63 1.63 0 1 0 3.26 0 a1.63 1.63 0 1 0 -3.26 0zM290.87 214.5 a1.63 1.63 0 1 0 3.26 0 a1.63 1.63 0 1 0 -3.26 0zM147.87 227.5 a1.63 1.63 0 1 0 3.26 0 a1.63 1.63 0 1 0 -3.26 0z" fill="black"></path><path d="M316.87 318.5 a1.63 1.63 0 1 0 3.26 0 a1.63 1.63 0 1 0 -3.26 0zM56.87 318.5 a1.63 1.63 0 1 0 3.26 0 a1.63 1.63 0 1 0 -3.26 0zM303.87 331.5 a1.63 1.63 0 1 0 3.26 0 a1.63 1.63 0 1 0 -3.26 0zM277.87 305.5 a1.63 1.63 0 1 0 3.26 0 a1.63 1.63 0 1 0 -3.26 0zM43.87 318.5 a1.63 1.63 0 1 0 3.26 0 a1.63 1.63 0 1 0 -3.26 0zM251.87 305.5 a1.63 1.63 0 1 0 3.26 0 a1.63 1.63 0 1 0 -3.26 0zM329.87 292.5 a1.63 1.63 0 1 0 3.26 0 a1.63 1.63 0 1 0 -3.26 0z" fill="black"></path><path d="M1070.87 201.5 a1.63 1.63 0 1 0 3.26 0 a1.63 1.63 0 1 0 -3.26 0zM524.87 214.5 a1.63 1.63 0 1 0 3.26 0 a1.63 1.63 0 1 0 -3.26 0zM979.87 123.5 a1.63 1.63 0 1 0 3.26 0 a1.63 1.63 0 1 0 -3.26 0zM238.87 188.5 a1.63 1.63 0 1 0 3.26 0 a1.63 1.63 0 1 0 -3.26 0zM407.87 188.5 a1.63 1.63 0 1 0 3.26 0 a1.63 1.63 0 1 0 -3.26 0zM576.87 240.5 a1.63 1.63 0 1 0 3.26 0 a1.63 1.63 0 1 0 -3.26 0zM381.87 214.5 a1.63 1.63 0 1 0 3.26 0 a1.63 1.63 0 1 0 -3.26 0zM901.87 175.5 a1.63 1.63 0 1 0 3.26 0 a1.63 1.63 0 1 0 -3.26 0zM914.87 214.5 a1.63 1.63 0 1 0 3.26 0 a1.63 1.63 0 1 0 -3.26 0zM927.87 201.5 a1.63 1.63 0 1 0 3.26 0 a1.63 1.63 0 1 0 -3.26 0zM953.87 162.5 a1.63 1.63 0 1 0 3.26 0 a1.63 1.63 0 1 0 -3.26 0zM888.87 110.5 a1.63 1.63 0 1 0 3.26 0 a1.63 1.63 0 1 0 -3.26 0zM1018.87 188.5 a1.63 1.63 0 1 0 3.26 0 a1.63 1.63 0 1 0 -3.26 0zM563.87 201.5 a1.63 1.63 0 1 0 3.26 0 a1.63 1.63 0 1 0 -3.26 0zM1187.87 214.5 a1.63 1.63 0 1 0 3.26 0 a1.63 1.63 0 1 0 -3.26 0zM706.87 149.5 a1.63 1.63 0 1 0 3.26 0 a1.63 1.63 0 1 0 -3.26 0zM745.87 175.5 a1.63 1.63 0 1 0 3.26 0 a1.63 1.63 0 1 0 -3.26 0zM1187.87 253.5 a1.63 1.63 0 1 0 3.26 0 a1.63 1.63 0 1 0 -3.26 0zM1187.87 175.5 a1.63 1.63 0 1 0 3.26 0 a1.63 1.63 0 1 0 -3.26 0zM563.87 214.5 a1.63 1.63 0 1 0 3.26 0 a1.63 1.63 0 1 0 -3.26 0zM1070.87 123.5 a1.63 1.63 0 1 0 3.26 0 a1.63 1.63 0 1 0 -3.26 0zM433.87 214.5 a1.63 1.63 0 1 0 3.26 0 a1.63 1.63 0 1 0 -3.26 0z" fill="black"></path><path d="M563.87 344.5 a1.63 1.63 0 1 0 3.26 0 a1.63 1.63 0 1 0 -3.26 0zM277.87 357.5 a1.63 1.63 0 1 0 3.26 0 a1.63 1.63 0 1 0 -3.26 0zM498.87 318.5 a1.63 1.63 0 1 0 3.26 0 a1.63 1.63 0 1 0 -3.26 0zM394.87 331.5 a1.63 1.63 0 1 0 3.26 0 a1.63 1.63 0 1 0 -3.26 0zM186.87 344.5 a1.63 1.63 0 1 0 3.26 0 a1.63 1.63 0 1 0 -3.26 0zM485.87 344.5 a1.63 1.63 0 1 0 3.26 0 a1.63 1.63 0 1 0 -3.26 0zM771.87 344.5 a1.63 1.63 0 1 0 3.26 0 a1.63 1.63 0 1 0 -3.26 0zM602.87 318.5 a1.63 1.63 0 1 0 3.26 0 a1.63 1.63 0 1 0 -3.26 0zM420.87 331.5 a1.63 1.63 0 1 0 3.26 0 a1.63 1.63 0 1 0 -3.26 0zM498.87 357.5 a1.63 1.63 0 1 0 3.26 0 a1.63 1.63 0 1 0 -3.26 0zM407.87 318.5 a1.63 1.63 0 1 0 3.26 0 a1.63 1.63 0 1 0 -3.26 0zM30.87 318.5 a1.63 1.63 0 1 0 3.26 0 a1.63 1.63 0 1 0 -3.26 0z" fill="black"></path><path d="M771.87 97.5 a1.63 1.63 0 1 0 3.26 0 a1.63 1.63 0 1 0 -3.26 0zM433.87 162.5 a1.63 1.63 0 1 0 3.26 0 a1.63 1.63 0 1 0 -3.26 0zM264.87 162.5 a1.63 1.63 0 1 0 3.26 0 a1.63 1.63 0 1 0 -3.26 0zM602.87 136.5 a1.63 1.63 0 1 0 3.26 0 a1.63 1.63 0 1 0 -3.26 0zM225.87 188.5 a1.63 1.63 0 1 0 3.26 0 a1.63 1.63 0 1 0 -3.26 0zM615.87 162.5 a1.63 1.63 0 1 0 3.26 0 a1.63 1.63 0 1 0 -3.26 0zM550.87 136.5 a1.63 1.63 0 1 0 3.26 0 a1.63 1.63 0 1 0 -3.26 0zM329.87 175.5 a1.63 1.63 0 1 0 3.26 0 a1.63 1.63 0 1 0 -3.26 0zM654.87 136.5 a1.63 1.63 0 1 0 3.26 0 a1.63 1.63 0 1 0 -3.26 0zM797.87 97.5 a1.63 1.63 0 1 0 3.26 0 a1.63 1.63 0 1 0 -3.26 0zM641.87 149.5 a1.63 1.63 0 1 0 3.26 0 a1.63 1.63 0 1 0 -3.26 0zM290.87 175.5 a1.63 1.63 0 1 0 3.26 0 a1.63 1.63 0 1 0 -3.26 0zM758.87 136.5 a1.63 1.63 0 1 0 3.26 0 a1.63 1.63 0 1 0 -3.26 0zM381.87 162.5 a1.63 1.63 0 1 0 3.26 0 a1.63 1.63 0 1 0 -3.26 0zM693.87 136.5 a1.63 1.63 0 1 0 3.26 0 a1.63 1.63 0 1 0 -3.26 0zM355.87 162.5 a1.63 1.63 0 1 0 3.26 0 a1.63 1.63 0 1 0 -3.26 0z" fill="black"></path><path d="M901.87 409.5 a1.63 1.63 0 1 0 3.26 0 a1.63 1.63 0 1 0 -3.26 0zM901.87 396.5 a1.63 1.63 0 1 0 3.26 0 a1.63 1.63 0 1 0 -3.26 0zM654.87 383.5 a1.63 1.63 0 1 0 3.26 0 a1.63 1.63 0 1 0 -3.26 0zM17.87 331.5 a1.63 1.63 0 1 0 3.26 0 a1.63 1.63 0 1 0 -3.26 0zM797.87 396.5 a1.63 1.63 0 1 0 3.26 0 a1.63 1.63 0 1 0 -3.26 0zM628.87 370.5 a1.63 1.63 0 1 0 3.26 0 a1.63 1.63 0 1 0 -3.26 0zM719.87 396.5 a1.63 1.63 0 1 0 3.26 0 a1.63 1.63 0 1 0 -3.26 0zM550.87 370.5 a1.63 1.63 0 1 0 3.26 0 a1.63 1.63 0 1 0 -3.26 0zM433.87 370.5 a1.63 1.63 0 1 0 3.26 0 a1.63 1.63 0 1 0 -3.26 0zM160.87 344.5 a1.63 1.63 0 1 0 3.26 0 a1.63 1.63 0 1 0 -3.26 0zM836.87 396.5 a1.63 1.63 0 1 0 3.26 0 a1.63 1.63 0 1 0 -3.26 0zM511.87 357.5 a1.63 1.63 0 1 0 3.26 0 a1.63 1.63 0 1 0 -3.26 0zM394.87 370.5 a1.63 1.63 0 1 0 3.26 0 a1.63 1.63 0 1 0 -3.26 0zM550.87 357.5 a1.63 1.63 0 1 0 3.26 0 a1.63 1.63 0 1 0 -3.26 0zM355.87 370.5 a1.63 1.63 0 1 0 3.26 0 a1.63 1.63 0 1 0 -3.26 0zM212.87 357.5 a1.63 1.63 0 1 0 3.26 0 a1.63 1.63 0 1 0 -3.26 0zM810.87 370.5 a1.63 1.63 0 1 0 3.26 0 a1.63 1.63 0 1 0 -3.26 0zM420.87 370.5 a1.63 1.63 0 1 0 3.26 0 a1.63 1.63 0 1 0 -3.26 0z" fill="black"></path><path d="M225.87 162.5 a1.63 1.63 0 1 0 3.26 0 a1.63 1.63 0 1 0 -3.26 0zM134.87 175.5 a1.63 1.63 0 1 0 3.26 0 a1.63 1.63 0 1 0 -3.26 0zM108.87 175.5 a1.63 1.63 0 1 0 3.26 0 a1.63 1.63 0 1 0 -3.26 0zM225.87 149.5 a1.63 1.63 0 1 0 3.26 0 a1.63 1.63 0 1 0 -3.26 0zM173.87 162.5 a1.63 1.63 0 1 0 3.26 0 a1.63 1.63 0 1 0 -3.26 0z" fill="black"></path><path d="M966.87 422.5 a1.63 1.63 0 1 0 3.26 0 a1.63 1.63 0 1 0 -3.26 0zM628.87 422.5 a1.63 1.63 0 1 0 3.26 0 a1.63 1.63 0 1 0 -3.26 0zM628.87 435.5 a1.63 1.63 0 1 0 3.26 0 a1.63 1.63 0 1 0 -3.26 0zM420.87 396.5 a1.63 1.63 0 1 0 3.26 0 a1.63 1.63 0 1 0 -3.26 0zM992.87 409.5 a1.63 1.63 0 1 0 3.26 0 a1.63 1.63 0 1 0 -3.26 0zM992.87 435.5 a1.63 1.63 0 1 0 3.26 0 a1.63 1.63 0 1 0 -3.26 0zM82.87 370.5 a1.63 1.63 0 1 0 3.26 0 a1.63 1.63 0 1 0 -3.26 0zM485.87 409.5 a1.63 1.63 0 1 0 3.26 0 a1.63 1.63 0 1 0 -3.26 0zM381.87 409.5 a1.63 1.63 0 1 0 3.26 0 a1.63 1.63 0 1 0 -3.26 0zM329.87 370.5 a1.63 1.63 0 1 0 3.26 0 a1.63 1.63 0 1 0 -3.26 0zM303.87 396.5 a1.63 1.63 0 1 0 3.26 0 a1.63 1.63 0 1 0 -3.26 0zM329.87 422.5 a1.63 1.63 0 1 0 3.26 0 a1.63 1.63 0 1 0 -3.26 0zM1057.87 409.5 a1.63 1.63 0 1 0 3.26 0 a1.63 1.63 0 1 0 -3.26 0zM1057.87 383.5 a1.63 1.63 0 1 0 3.26 0 a1.63 1.63 0 1 0 -3.26 0zM238.87 396.5 a1.63 1.63 0 1 0 3.26 0 a1.63 1.63 0 1 0 -3.26 0z" fill="black"></path><path d="M745.87 97.5 a1.63 1.63 0 1 0 3.26 0 a1.63 1.63 0 1 0 -3.26 0zM212.87 149.5 a1.63 1.63 0 1 0 3.26 0 a1.63 1.63 0 1 0 -3.26 0zM251.87 162.5 a1.63 1.63 0 1 0 3.26 0 a1.63 1.63 0 1 0 -3.26 0zM147.87 162.5 a1.63 1.63 0 1 0 3.26 0 a1.63 1.63 0 1 0 -3.26 0zM342.87 149.5 a1.63 1.63 0 1 0 3.26 0 a1.63 1.63 0 1 0 -3.26 0zM95.87 175.5 a1.63 1.63 0 1 0 3.26 0 a1.63 1.63 0 1 0 -3.26 0z" fill="black"></path><path d="M394.87 435.5 a1.63 1.63 0 1 0 3.26 0 a1.63 1.63 0 1 0 -3.26 0zM485.87 435.5 a1.63 1.63 0 1 0 3.26 0 a1.63 1.63 0 1 0 -3.26 0zM316.87 422.5 a1.63 1.63 0 1 0 3.26 0 a1.63 1.63 0 1 0 -3.26 0zM147.87 396.5 a1.63 1.63 0 1 0 3.26 0 a1.63 1.63 0 1 0 -3.26 0zM251.87 422.5 a1.63 1.63 0 1 0 3.26 0 a1.63 1.63 0 1 0 -3.26 0zM381.87 422.5 a1.63 1.63 0 1 0 3.26 0 a1.63 1.63 0 1 0 -3.26 0zM30.87 370.5 a1.63 1.63 0 1 0 3.26 0 a1.63 1.63 0 1 0 -3.26 0zM238.87 422.5 a1.63 1.63 0 1 0 3.26 0 a1.63 1.63 0 1 0 -3.26 0zM290.87 422.5 a1.63 1.63 0 1 0 3.26 0 a1.63 1.63 0 1 0 -3.26 0z" fill="black"></path><path d="M953.87 110.5 a1.63 1.63 0 1 0 3.26 0 a1.63 1.63 0 1 0 -3.26 0zM1187.87 71.5 a1.63 1.63 0 1 0 3.26 0 a1.63 1.63 0 1 0 -3.26 0zM680.87 71.5 a1.63 1.63 0 1 0 3.26 0 a1.63 1.63 0 1 0 -3.26 0zM407.87 84.5 a1.63 1.63 0 1 0 3.26 0 a1.63 1.63 0 1 0 -3.26 0zM810.87 71.5 a1.63 1.63 0 1 0 3.26 0 a1.63 1.63 0 1 0 -3.26 0zM953.87 84.5 a1.63 1.63 0 1 0 3.26 0 a1.63 1.63 0 1 0 -3.26 0zM706.87 84.5 a1.63 1.63 0 1 0 3.26 0 a1.63 1.63 0 1 0 -3.26 0zM459.87 110.5 a1.63 1.63 0 1 0 3.26 0 a1.63 1.63 0 1 0 -3.26 0zM485.87 123.5 a1.63 1.63 0 1 0 3.26 0 a1.63 1.63 0 1 0 -3.26 0zM550.87 84.5 a1.63 1.63 0 1 0 3.26 0 a1.63 1.63 0 1 0 -3.26 0zM394.87 110.5 a1.63 1.63 0 1 0 3.26 0 a1.63 1.63 0 1 0 -3.26 0zM680.87 84.5 a1.63 1.63 0 1 0 3.26 0 a1.63 1.63 0 1 0 -3.26 0zM134.87 136.5 a1.63 1.63 0 1 0 3.26 0 a1.63 1.63 0 1 0 -3.26 0zM940.87 71.5 a1.63 1.63 0 1 0 3.26 0 a1.63 1.63 0 1 0 -3.26 0zM836.87 97.5 a1.63 1.63 0 1 0 3.26 0 a1.63 1.63 0 1 0 -3.26 0zM472.87 123.5 a1.63 1.63 0 1 0 3.26 0 a1.63 1.63 0 1 0 -3.26 0zM342.87 110.5 a1.63 1.63 0 1 0 3.26 0 a1.63 1.63 0 1 0 -3.26 0zM901.87 97.5 a1.63 1.63 0 1 0 3.26 0 a1.63 1.63 0 1 0 -3.26 0zM1018.87 32.5 a1.63 1.63 0 1 0 3.26 0 a1.63 1.63 0 1 0 -3.26 0z" fill="black"></path><path d="M212.87 422.5 a1.63 1.63 0 1 0 3.26 0 a1.63 1.63 0 1 0 -3.26 0zM134.87 396.5 a1.63 1.63 0 1 0 3.26 0 a1.63 1.63 0 1 0 -3.26 0zM212.87 409.5 a1.63 1.63 0 1 0 3.26 0 a1.63 1.63 0 1 0 -3.26 0zM121.87 383.5 a1.63 1.63 0 1 0 3.26 0 a1.63 1.63 0 1 0 -3.26 0zM186.87 409.5 a1.63 1.63 0 1 0 3.26 0 a1.63 1.63 0 1 0 -3.26 0z" fill="black"></path><path d="M745.87 32.5 a1.63 1.63 0 1 0 3.26 0 a1.63 1.63 0 1 0 -3.26 0zM420.87 58.5 a1.63 1.63 0 1 0 3.26 0 a1.63 1.63 0 1 0 -3.26 0zM108.87 136.5 a1.63 1.63 0 1 0 3.26 0 a1.63 1.63 0 1 0 -3.26 0zM719.87 45.5 a1.63 1.63 0 1 0 3.26 0 a1.63 1.63 0 1 0 -3.26 0zM368.87 58.5 a1.63 1.63 0 1 0 3.26 0 a1.63 1.63 0 1 0 -3.26 0zM368.87 84.5 a1.63 1.63 0 1 0 3.26 0 a1.63 1.63 0 1 0 -3.26 0zM394.87 58.5 a1.63 1.63 0 1 0 3.26 0 a1.63 1.63 0 1 0 -3.26 0zM199.87 110.5 a1.63 1.63 0 1 0 3.26 0 a1.63 1.63 0 1 0 -3.26 0zM303.87 84.5 a1.63 1.63 0 1 0 3.26 0 a1.63 1.63 0 1 0 -3.26 0zM589.87 71.5 a1.63 1.63 0 1 0 3.26 0 a1.63 1.63 0 1 0 -3.26 0zM17.87 188.5 a1.63 1.63 0 1 0 3.26 0 a1.63 1.63 0 1 0 -3.26 0zM550.87 58.5 a1.63 1.63 0 1 0 3.26 0 a1.63 1.63 0 1 0 -3.26 0zM524.87 58.5 a1.63 1.63 0 1 0 3.26 0 a1.63 1.63 0 1 0 -3.26 0zM628.87 58.5 a1.63 1.63 0 1 0 3.26 0 a1.63 1.63 0 1 0 -3.26 0zM511.87 58.5 a1.63 1.63 0 1 0 3.26 0 a1.63 1.63 0 1 0 -3.26 0z" fill="black"></path><path d="M784.87 435.5 a1.63 1.63 0 1 0 3.26 0 a1.63 1.63 0 1 0 -3.26 0zM706.87 448.5 a1.63 1.63 0 1 0 3.26 0 a1.63 1.63 0 1 0 -3.26 0zM706.87 461.5 a1.63 1.63 0 1 0 3.26 0 a1.63 1.63 0 1 0 -3.26 0zM537.87 461.5 a1.63 1.63 0 1 0 3.26 0 a1.63 1.63 0 1 0 -3.26 0zM576.87 435.5 a1.63 1.63 0 1 0 3.26 0 a1.63 1.63 0 1 0 -3.26 0zM368.87 474.5 a1.63 1.63 0 1 0 3.26 0 a1.63 1.63 0 1 0 -3.26 0zM992.87 500.5 a1.63 1.63 0 1 0 3.26 0 a1.63 1.63 0 1 0 -3.26 0zM654.87 448.5 a1.63 1.63 0 1 0 3.26 0 a1.63 1.63 0 1 0 -3.26 0zM459.87 461.5 a1.63 1.63 0 1 0 3.26 0 a1.63 1.63 0 1 0 -3.26 0zM69.87 422.5 a1.63 1.63 0 1 0 3.26 0 a1.63 1.63 0 1 0 -3.26 0zM589.87 474.5 a1.63 1.63 0 1 0 3.26 0 a1.63 1.63 0 1 0 -3.26 0zM355.87 487.5 a1.63 1.63 0 1 0 3.26 0 a1.63 1.63 0 1 0 -3.26 0zM680.87 500.5 a1.63 1.63 0 1 0 3.26 0 a1.63 1.63 0 1 0 -3.26 0zM758.87 461.5 a1.63 1.63 0 1 0 3.26 0 a1.63 1.63 0 1 0 -3.26 0zM810.87 448.5 a1.63 1.63 0 1 0 3.26 0 a1.63 1.63 0 1 0 -3.26 0zM615.87 435.5 a1.63 1.63 0 1 0 3.26 0 a1.63 1.63 0 1 0 -3.26 0z" fill="black"></path><path d="M472.87 32.5 a1.63 1.63 0 1 0 3.26 0 a1.63 1.63 0 1 0 -3.26 0zM212.87 84.5 a1.63 1.63 0 1 0 3.26 0 a1.63 1.63 0 1 0 -3.26 0zM303.87 58.5 a1.63 1.63 0 1 0 3.26 0 a1.63 1.63 0 1 0 -3.26 0zM186.87 110.5 a1.63 1.63 0 1 0 3.26 0 a1.63 1.63 0 1 0 -3.26 0zM277.87 58.5 a1.63 1.63 0 1 0 3.26 0 a1.63 1.63 0 1 0 -3.26 0z" fill="black"></path><path d="M251.87 448.5 a1.63 1.63 0 1 0 3.26 0 a1.63 1.63 0 1 0 -3.26 0zM199.87 448.5 a1.63 1.63 0 1 0 3.26 0 a1.63 1.63 0 1 0 -3.26 0zM277.87 461.5 a1.63 1.63 0 1 0 3.26 0 a1.63 1.63 0 1 0 -3.26 0zM56.87 422.5 a1.63 1.63 0 1 0 3.26 0 a1.63 1.63 0 1 0 -3.26 0zM212.87 461.5 a1.63 1.63 0 1 0 3.26 0 a1.63 1.63 0 1 0 -3.26 0zM173.87 461.5 a1.63 1.63 0 1 0 3.26 0 a1.63 1.63 0 1 0 -3.26 0z" fill="black"></path><path d="M4.87 162.5 a1.63 1.63 0 1 0 3.26 0 a1.63 1.63 0 1 0 -3.26 0z" fill="black"></path><path d="M121.87 448.5 a1.63 1.63 0 1 0 3.26 0 a1.63 1.63 0 1 0 -3.26 0zM108.87 461.5 a1.63 1.63 0 1 0 3.26 0 a1.63 1.63 0 1 0 -3.26 0zM95.87 474.5 a1.63 1.63 0 1 0 3.26 0 a1.63 1.63 0 1 0 -3.26 0z" fill="black"></path><path d="M381.87 32.5 a1.63 1.63 0 1 0 3.26 0 a1.63 1.63 0 1 0 -3.26 0zM108.87 84.5 a1.63 1.63 0 1 0 3.26 0 a1.63 1.63 0 1 0 -3.26 0zM173.87 84.5 a1.63 1.63 0 1 0 3.26 0 a1.63 1.63 0 1 0 -3.26 0zM134.87 71.5 a1.63 1.63 0 1 0 3.26 0 a1.63 1.63 0 1 0 -3.26 0zM251.87 45.5 a1.63 1.63 0 1 0 3.26 0 a1.63 1.63 0 1 0 -3.26 0zM121.87 58.5 a1.63 1.63 0 1 0 3.26 0 a1.63 1.63 0 1 0 -3.26 0zM199.87 84.5 a1.63 1.63 0 1 0 3.26 0 a1.63 1.63 0 1 0 -3.26 0zM251.87 32.5 a1.63 1.63 0 1 0 3.26 0 a1.63 1.63 0 1 0 -3.26 0z" fill="black"></path></mask></defs></svg>